<svg xmlns="http://www.w3.org/2000/svg" width="16" height="16" viewBox="0 0 16 16">
  <defs>
    <style>
      .cls-1 {
        fill-rule: evenodd;
      }
    </style>
  </defs>
  <path id="icon-shouye" class="cls-1" d="M415.263,36.013a2.038,2.038,0,0,1-2,2.016H402.715a2.032,2.032,0,0,1-2-1.977l-0.723-8.685a2.02,2.02,0,0,1,1.029-1.764l5.825-3.3a2.326,2.326,0,0,1,2.3,0l5.827,3.276a2.023,2.023,0,0,1,1.029,1.764v0.058Zm-9.255.465h3.943V32.116a0.337,0.337,0,0,0-.153-0.33h-3.637a0.338,0.338,0,0,0-.153.33v4.362Zm8.207-9.519-5.807-3.3a0.779,0.779,0,0,0-.819,0l-5.826,3.3a0.424,0.424,0,0,0-.248.388l0.743,8.666a0.471,0.471,0,0,0,.477.465h1.751V32.116a1.776,1.776,0,0,1,1.675-1.881H409.8a1.8,1.8,0,0,1,1.675,1.881v4.362h1.809a0.472,0.472,0,0,0,.477-0.465V35.955l0.7-8.608A0.446,0.446,0,0,0,414.215,26.959Z" transform="translate(-400 -22.031)"/>
</svg>
