<svg xmlns="http://www.w3.org/2000/svg" width="16" height="16" viewBox="0 0 16 16">
  <defs>
    <style>
      .cls-1 {
        fill-rule: evenodd;
      }
    </style>
  </defs>
  <path id="icon-mubiao" class="cls-1" d="M531.8,25.362l-2.091,2.376,0.84,3.018a0.659,0.659,0,0,1-.161.642,0.689,0.689,0,0,1-.5.208,0.456,0.456,0,0,1-.143-0.017l-6.634-1.422-0.518,4.388a0.719,0.719,0,0,1-.7.59h-0.072a0.684,0.684,0,0,1-.608-0.746l0.608-5.134,0.125-1.058,0.411-3.417,0.268-2.186a0.686,0.686,0,0,1,.3-0.485,0.672,0.672,0,0,1,.572-0.087l8.011,2.238a0.7,0.7,0,0,1,.464.451A0.609,0.609,0,0,1,531.8,25.362Zm-7.885-1.821L523.287,28.8l5.651,1.214-0.626-2.29a0.686,0.686,0,0,1,.143-0.607l1.627-1.856ZM518.6,33.618a1.7,1.7,0,0,0-1.216,1.18c0,0.763,1.771,1.821,4.632,1.821s4.631-1.075,4.631-1.839a1.862,1.862,0,0,0-1.359-1.249,0.661,0.661,0,0,1-.358-0.885,0.7,0.7,0,0,1,.912-0.347c1.395,0.59,2.2,1.509,2.217,2.5,0,1.821-2.592,3.191-6.026,3.191s-6.026-1.37-6.026-3.191c0-.954.7-1.8,1.986-2.394a0.7,0.7,0,0,1,.93.312A0.658,0.658,0,0,1,518.6,33.618Z" transform="translate(-516 -22)"/>
</svg>
